<svg id="Layer_1" data-name="Layer 1" xmlns="http://www.w3.org/2000/svg" width="94.8638" height="36.1242" viewBox="0 0 94.8638 36.1242"><path d="M-.0007,31.0132l5.3593-6.3516c1.836,2.3819,3.7706,3.6226,6.0039,3.6226,2.8282,0,4.3672-1.7368,4.3672-5.0615V8.2866H3.7209V.6948H25.4553V22.6274c0,9.0313-4.665,13.4971-13.3984,13.4971C6.9963,36.1245,2.679,34.3379-.0007,31.0132Z"/><path d="M31.0588,32.3037l3.2256-7.2451a21.8985,21.8985,0,0,0,11.4619,3.4243c4.0694,0,5.6573-1.1416,5.6573-2.8286,0-5.5083-19.7491-1.4888-19.7491-14.39C31.6545,5.061,36.7151,0,47.0364,0A26.0153,26.0153,0,0,1,59.6409,3.0269l-3.0274,7.2944a20.52,20.52,0,0,0-9.626-2.68c-4.1191,0-5.6074,1.3892-5.6074,3.126,0,5.31,19.6992,1.34,19.6992,14.1421,0,6.0542-5.0615,11.2148-15.3828,11.2148C39.9905,36.1245,34.3333,34.5859,31.0588,32.3037Z"/><path d="M94.8674,27.8374V35.43H66.9807V.6948H94.2229V8.2866H76.7063v5.8555H92.1389v7.3437H76.7063v6.3516Z"/></svg>